<svg width="88" height="70" viewBox="0 0 88 70" fill="none" xmlns="http://www.w3.org/2000/svg">
<path d="M16.9634 0.10618C14.3589 0.535321 11.9429 2.32055 10.7435 4.70658C9.90386 6.40597 9.76677 7.19559 9.76677 10.6287C9.76677 23.9665 6.76822 31.4162 0.925275 32.6522L0 32.8411V35.0041V37.1668L0.925275 37.3557C6.76822 38.5917 9.76677 46.0416 9.76677 59.3793C9.76677 62.8123 9.90386 63.6019 10.7435 65.3015C11.6859 67.1897 13.485 68.786 15.4555 69.5241L16.535 69.9362L43.265 69.9877C62.6788 70.022 70.2693 69.9877 71.0233 69.8503C74.1761 69.2496 76.8664 66.6918 77.706 63.4818C77.8774 62.8468 77.963 61.6108 77.963 59.551C77.963 49.4232 79.642 42.6772 82.915 39.4841C83.9257 38.5059 85.5193 37.6304 86.77 37.373L87.7296 37.1841V35.0041V32.8239L86.77 32.6352C80.9615 31.4678 77.98 23.9321 77.963 10.4571C77.963 8.39719 77.8774 7.16127 77.706 6.52614C76.8664 3.31616 74.1419 0.741311 71.0406 0.174843C70.3208 0.0375172 61.959 -0.0139799 43.7106 0.00318579C29.2318 0.0203515 17.2032 0.0718486 16.9634 0.10618ZM49.8279 16.7741C54.3343 18.1473 56.9044 21.2543 56.9386 25.3912C56.9728 29.1333 54.8652 32.2059 51.387 33.5277L50.3761 33.9055L51.4554 34.1287C53.2032 34.4889 54.9339 35.4159 56.2188 36.7034C58.0695 38.5574 58.7893 40.3426 58.7893 43.1578C58.772 47.2775 56.9559 50.3329 53.4604 52.0838C50.4959 53.5772 49.2794 53.7146 38.8615 53.7146H30.3284V34.9868V16.2762L39.4611 16.3278C48.3026 16.3964 48.6111 16.4136 49.8279 16.7741Z" fill="#840AFA"/>
<path d="M36.4969 26.6786V32.0858H40.575C44.8587 32.0858 46.195 31.9314 47.7372 31.2446C48.971 30.6954 49.7934 29.9231 50.3246 28.8587C50.7187 28.0347 50.8044 27.6571 50.8044 26.507C50.8044 24.0008 49.6051 22.3701 47.189 21.6148C46.1608 21.3058 45.5954 21.2715 41.2776 21.2715H36.4969V26.6786Z" fill="#840AFA"/>
<path d="M36.4969 42.7284V48.7364H41.4316C47.8229 48.7364 49.211 48.462 50.9415 46.8654C52.1065 45.8011 52.5006 44.7197 52.5179 42.7114C52.5179 41.218 52.4664 40.9775 52.0039 40.0678C51.1128 38.3169 49.3478 37.3041 46.5207 36.8923C45.8696 36.8062 43.3337 36.7204 40.9177 36.7204H36.4969V42.7284Z" fill="#840AFA"/>
</svg>
