<svg width="108" height="70" viewBox="0 0 108 70" fill="none" xmlns="http://www.w3.org/2000/svg">
<path d="M60.9923 1.05109C60.7281 1.66422 55.444 16.7298 49.1915 34.5983C42.9393 52.3791 37.4794 67.7077 37.2152 68.5836C36.5987 69.9851 37.0391 70.16 42.1467 69.8973L47.6947 69.6346L59.8473 35.0362C66.54 16.0291 72 0.350362 72 0.175181C72 0.0875903 69.6224 0 66.7164 0C63.1939 0 61.2564 0.350362 60.9923 1.05109Z" fill="#3465A4"/>
<path d="M28.0718 18.842C26.4103 19.5458 19.4142 22.5373 12.5055 25.4407L0 30.7197L0.262354 35.2069L0.524706 39.6061L12.593 44.7092C33.5813 53.5075 31.4825 52.8917 32.4444 50.3402C34.893 43.8293 35.3303 44.3572 23.3495 39.6941C17.3153 37.3186 12.3306 35.2069 12.3306 34.943C12.3306 34.679 17.1404 32.7434 22.9122 30.5438C28.684 28.3442 33.6687 26.3206 33.9311 25.8806C34.3683 25.1768 32.6193 19.0179 31.6573 18.1381C31.395 17.7861 29.7334 18.1381 28.0718 18.842Z" fill="#333333"/>
<path d="M76.5088 19.7714C76.0774 20.9119 75.646 22.9296 75.4734 24.1579C75.2146 26.3511 75.7321 26.702 85.8268 30.5621C91.6071 32.843 96.3524 34.9485 96.3524 35.2117C96.3524 35.4749 91.9524 37.4049 86.603 39.4227C73.7478 44.3355 74.3519 43.8091 75.646 47.9323C76.2501 49.8625 76.9402 51.6171 77.285 51.9676C77.6303 52.3187 84.6187 49.7749 92.9013 46.2655L108 39.7736V35.2117V30.5621L94.0233 24.5965C86.3443 21.3506 79.442 18.4555 78.6658 18.1046C77.7164 17.7537 77.0263 18.28 76.5088 19.7714Z" fill="#333333"/>
</svg>
