<svg width="68" height="71" viewBox="0 0 68 71" fill="none" xmlns="http://www.w3.org/2000/svg">
<path d="M45.9789 0.143019C44.3858 0.323111 41.8367 0.821827 41.1856 1.07118C40.9639 1.15431 40.2714 1.1266 39.1632 0.988066C36.9743 0.724854 33.7741 0.724854 32.1949 0.988066C30.6435 1.26513 29.0501 1.76385 27.8035 2.38724L26.8475 2.87211L25.0882 2.38724C17.3165 0.170725 10.8748 0.517057 6.46945 3.35696C2.17496 6.14146 0 11.0178 0 17.9028C0 19.9254 0.249358 21.9757 0.914313 25.2865C2.86763 35.1917 5.9846 44.0577 8.97689 48.2137C10.4453 50.2502 12.2601 51.6354 13.9779 52.0371C15.571 52.4112 17.649 51.968 18.9374 50.9843L19.4084 50.6243L19.9764 51.1367C22.0821 53.0484 27.0277 53.7135 30.3801 52.5636C30.8235 52.4112 31.2252 52.3281 31.2807 52.3698C31.3221 52.425 31.4052 53.658 31.4607 55.1266C31.6269 59.5041 31.8901 61.3605 32.6383 63.6184C33.331 65.7104 33.982 66.9017 35.0486 67.9824C36.0044 68.952 37.182 69.6309 38.4426 69.9079C40.105 70.282 42.7234 70.0186 45.2031 69.2013C47.0871 68.5917 48.0985 67.9683 49.4836 66.5831C50.5366 65.5163 50.7721 65.1839 51.4508 63.7987C52.6838 61.2774 53.3211 58.3265 53.6121 53.9766C53.6952 52.6467 53.7921 51.2891 53.8338 50.9705L53.9028 50.3747H55.1775C56.7568 50.3747 59.0009 50.0702 60.4694 49.6822C63.3786 48.9064 66.6755 46.6344 67.6037 44.7642C67.9916 43.9469 68.1164 42.7277 67.8809 41.9936C67.6454 41.2594 66.8279 40.4143 66.0107 40.0402C65.1379 39.6247 64.0849 39.6109 61.9377 39.985C60.3863 40.2619 59.2919 40.345 59.2919 40.1788C59.2919 40.1374 59.5274 39.6802 59.8322 39.1813C61.2312 36.771 63.3786 32.1439 64.4869 29.1795C67.7007 20.4934 68.5596 12.9434 66.7727 9.11992C65.1655 5.68431 60.123 2.01321 55.3159 0.766414C52.6007 0.0737526 48.8326 -0.189459 45.9789 0.143019ZM51.0908 1.88852C55.8562 2.31797 59.7767 4.06349 62.8936 7.15274C64.3345 8.57963 64.93 9.42467 65.2765 10.5191C66.8141 15.4785 64.3621 26.0624 59.4443 35.6211C58.7792 36.9096 57.7541 38.7658 57.1723 39.7356C56.5903 40.6915 56.1055 41.5226 56.1055 41.5642C56.1055 41.6057 56.4241 41.7304 56.8258 41.855C57.7819 42.1322 59.9291 42.1184 61.7715 41.8274C62.575 41.6888 63.6972 41.578 64.2514 41.578C65.2348 41.578 65.2903 41.5919 65.6782 42.0352C66.3847 42.8249 66.1214 43.8362 64.8748 44.9859C62.478 47.2162 59.3195 48.3244 55.2744 48.3385C54.3186 48.3385 53.3073 48.283 53.0301 48.1999L52.5176 48.0475L52.4483 48.56C52.4067 48.8371 52.2128 50.3609 52.019 51.968C50.8136 61.9699 50.3704 63.577 48.2647 65.6549C46.1727 67.7052 41.047 68.9103 38.4012 67.9824C36.7941 67.4282 35.6444 66.4722 34.7023 64.9346C33.3586 62.7181 33.04 60.6261 32.8738 53.1039C32.8321 50.8457 32.7628 48.9895 32.7352 48.9895C32.7214 48.9895 32.4304 49.1972 32.0979 49.4467C30.5742 50.5964 27.9419 51.3308 25.9054 51.1367C23.6751 50.9429 22.179 50.4719 21.2647 49.6682C20.3781 48.8926 20.198 48.0613 20.7383 47.2441C21.0569 46.7452 22.1929 46.2327 23.9799 45.8172C25.8085 45.3738 26.4874 45.1245 26.9584 44.7366C27.2632 44.4594 28.3991 43.1018 28.3991 43.0049C28.3991 42.9632 28.0388 42.8942 27.5818 42.8525C26.903 42.7832 25.8223 42.4508 24.7834 42.0074C24.5479 41.9105 23.121 43.4066 19.8517 47.1886C19.0897 48.0613 18.1754 49.0033 17.8014 49.2943C14.7814 51.5801 11.4012 49.5437 8.54745 43.6838C6.34477 39.1675 4.28065 32.518 2.7845 25.0927C1.9533 20.9644 1.75936 19.2328 1.85633 16.85C2.05028 12.0568 3.21394 8.80128 5.61055 6.37697C7.2868 4.67302 9.28167 3.62017 11.9138 3.05219C13.7008 2.65046 18.3001 2.69202 20.572 3.12146C22.5946 3.49551 24.0354 3.85568 25.7392 4.39596L27.0277 4.81157L28.5791 4.04963C30.7125 3.01063 31.9594 2.70588 34.6607 2.62275C36.725 2.55347 38.235 2.6643 39.7726 3.01063C40.3129 3.13532 40.59 3.09376 41.6428 2.80284C44.8152 1.91623 47.9599 1.61146 51.0908 1.88852Z" fill="#346891"/>
<path d="M46.6853 3.95264C44.9537 4.1466 44.1917 4.27128 44.1917 4.35439C44.2055 4.4098 44.5241 4.60376 44.912 4.79771C46.0619 5.36569 47.9183 6.62632 49.1097 7.65146C52.0327 10.2005 54.7617 14.1902 55.8837 17.5704C56.3271 18.9003 56.3547 20.3272 55.9809 23.1255C55.5099 26.5058 55.5099 26.6165 55.8285 29.4702C56.3271 33.8756 56.1192 36.2723 55.025 38.4471C54.8033 38.9044 54.6647 39.3337 54.7202 39.4308C54.8448 39.6247 55.5651 38.5026 56.9922 35.8706C61.3559 27.8495 64.2096 17.8752 63.6 12.7356C63.3785 10.8516 63.0459 10.2005 61.5497 8.71817C59.1256 6.29384 56.1885 4.78385 52.6976 4.17432C51.2431 3.92495 48.0846 3.81412 46.6853 3.95264Z" fill="#346891"/>
<path d="M32.4166 4.86694C26.8616 6.01676 23.3983 10.4082 22.096 18.0137C21.9852 18.6925 21.8882 19.4544 21.8882 19.7176C21.8882 20.1886 21.902 20.2025 22.2068 20.0085C22.373 19.8977 23.0104 19.6068 23.6059 19.3574C26.5013 18.2076 29.1057 18.1245 30.8374 19.1358C31.6546 19.6206 32.6383 20.7566 32.957 21.6155C33.6356 23.4441 34.1621 27.614 34.0235 30.2184C33.9128 32.3794 33.4832 34.1527 32.4859 36.5216C31.6963 38.3778 30.7543 40.8715 30.7543 41.0794C30.7543 41.1485 31.0729 41.2316 31.447 41.2732C32.7491 41.4256 33.8573 42.2429 34.5777 43.5866C34.8132 44.03 34.841 44.5703 34.9241 50.5826C35.0487 59.5872 35.2566 61.5267 36.24 63.4246C36.8913 64.6297 37.6393 65.4056 38.623 65.8628C39.3016 66.1814 39.5926 66.2228 40.7285 66.2228C43.0559 66.2228 45.7296 65.2808 46.9348 64.0618C48.4726 62.5102 48.8189 61.0971 49.8716 52.5221C50.024 51.2198 50.2181 49.6682 50.3012 49.0588C50.3843 48.463 50.4951 47.1193 50.5644 46.0803C50.6336 44.9859 50.7722 43.9331 50.9106 43.559C51.1878 42.7556 52.0467 41.855 52.8501 41.4949L53.4597 41.2316L52.5592 40.0542C52.0743 39.403 51.3816 38.2671 51.0077 37.5189C50.6336 36.7848 49.9409 35.4548 49.4561 34.5821C46.0759 28.4729 44.94 24.1645 45.979 21.4077C46.8241 19.1635 49.2899 17.9721 52.7394 18.1106C54.0832 18.1799 54.0553 18.3184 53.1273 16.3651C51.9912 13.9962 49.7471 10.9762 47.9599 9.4108C45.12 6.93108 41.9891 5.44878 38.4151 4.86694C36.8496 4.6176 33.6497 4.6176 32.4166 4.86694Z" fill="#346891"/>
<path d="M13.1607 4.93624C8.31205 5.58733 5.37517 8.41341 4.2669 13.5114C3.83746 15.4924 3.83746 19.5653 4.2669 21.9757C6.10939 32.0332 9.06013 41.1902 11.8169 45.3183C12.5373 46.399 13.6455 47.5627 14.2967 47.8951C15.4465 48.4907 16.3054 48.103 17.8431 46.3573C18.4111 45.7062 19.7687 44.1825 20.8492 42.9633L22.8163 40.733L21.9575 39.8188C19.8933 37.5882 19.0206 34.3466 19.547 30.9111C19.644 30.357 19.7133 27.5585 19.7271 24.4C19.7687 18.5678 19.8102 18.0968 20.5029 15.3262C21.3618 11.9598 22.7887 9.0368 24.5758 7.06963L25.2131 6.34927L23.5783 5.93367C21.4726 5.37954 20.1704 5.11634 18.6327 4.93624C17.2335 4.78387 14.3243 4.78387 13.1607 4.93624Z" fill="#346891"/>
<path d="M50.5644 20.3133C49.6362 20.5211 48.5834 21.0891 48.251 21.5878C46.9625 23.5134 48.0155 27.6278 51.2847 33.5155C51.6588 34.1942 52.2544 35.3162 52.6009 36.0089L53.2381 37.2834L53.4874 36.7155C53.7784 36.0089 54.0277 34.4713 54.0277 33.2938C54.0277 32.809 53.9029 31.2297 53.7367 29.7888C53.4181 26.8798 53.4319 26.104 53.9029 22.6683C54.0694 21.4493 54.1663 20.4103 54.1108 20.3549C53.9722 20.2025 51.2292 20.1748 50.5644 20.3133ZM51.9913 21.1306C52.7809 21.4354 52.4485 22.3913 51.354 22.9315C50.7168 23.2503 50.6751 23.2503 50.0934 23.0286C48.8465 22.5575 48.6941 21.8372 49.7333 21.3107C50.3844 20.9921 51.3957 20.909 51.9913 21.1306Z" fill="#346891"/>
<path d="M26.3904 20.6596C26.3211 20.6873 25.8223 20.8397 25.282 21.006C24.1878 21.3523 23.024 21.8649 22.2898 22.3497L21.7911 22.6821L21.8603 25.6192C21.9019 27.794 21.8603 29.0547 21.6941 30.4815C21.4032 32.9752 21.417 33.751 21.7495 35.0531C22.2482 37.0341 23.3565 38.6272 24.9495 39.694C25.8639 40.3036 27.3046 40.816 28.1081 40.816H28.6207L29.0087 39.5971C29.2304 38.932 29.7704 37.5189 30.2276 36.4523C31.4468 33.5846 31.7376 32.518 31.9455 30.1491C32.0979 28.3482 31.4883 23.5689 30.948 22.2528C30.4355 21.0475 29.5628 20.5904 27.7756 20.6042C27.0967 20.6042 26.4735 20.6319 26.3904 20.6596ZM29.8676 21.9203C30.477 22.3636 30.5741 22.6129 30.3386 23.0424C29.8535 23.9014 28.5376 24.1921 27.6511 23.638C26.7922 23.1117 26.5012 22.322 26.9722 21.7956C27.3184 21.4216 29.2994 21.4908 29.8676 21.9203Z" fill="#346891"/>
<path d="M53.8196 43.3652C53.0854 43.6976 52.8638 44.0717 52.8085 45.0414C52.753 45.9141 52.753 45.9417 53.1409 46.1079C53.7503 46.3573 56.7843 46.302 58.2111 46.0248C59.9983 45.6786 61.8407 44.8752 62.8935 43.9884L63.2399 43.6976L62.8935 43.7807C61.8131 44.0162 59.5966 44.1686 58.2666 44.1131C57.006 44.0577 56.5764 43.9746 55.8284 43.6559C54.7064 43.1849 54.3461 43.1297 53.8196 43.3652Z" fill="#346891"/>
<path d="M29.6458 44.7921C27.9556 46.8283 27.3184 47.1886 24.1877 47.8951C22.9685 48.1721 22.8439 48.2275 23.0795 48.3937C23.3981 48.6293 24.0629 48.8095 25.2821 49.0033C27.9418 49.4327 30.6431 48.463 32.2224 46.5237C32.8875 45.72 32.9706 45.2907 32.6381 44.5011C32.3888 43.8915 31.793 43.4483 31.2251 43.4483C30.8096 43.4483 30.6431 43.5867 29.6458 44.7921Z" fill="#346891"/>
</svg>
