<svg width="68" height="70" viewBox="0 0 68 70" fill="none" xmlns="http://www.w3.org/2000/svg">
<path d="M50.8225 30.0975C50.8225 46.651 50.7757 60.1948 50.7289 60.1948C50.6823 60.1948 39.3007 58.5018 25.4653 56.4327C11.6064 54.3636 0.17813 52.6706 0.014536 52.694C-0.242542 52.7175 2.60868 53.6816 33.0842 64.0277L50.7757 70L59.3762 66.4024L68 62.8048V34.9177V7.03058L59.5865 3.52704C54.9825 1.57541 51.103 0 51.0094 0C50.916 0 50.8225 13.5438 50.8225 30.0975Z" fill="#3EADF2"/>
<path d="M24.4827 17.9123L16.4354 25.8245L11.6071 22.1962L6.80203 18.5677L4.88935 19.1998L3 19.8318L7.85167 24.7477L12.7267 29.6403L7.82835 34.3922C5.1226 37.0142 2.97668 39.2146 3.04666 39.2848C3.11663 39.3317 3.97966 39.6593 4.95933 39.9871L6.75539 40.5722L11.5837 36.9439L16.3887 33.3155L17.2518 34.1113C17.7183 34.5327 21.2638 38.0441 25.159 41.9066C29.0312 45.7691 32.3433 48.9528 32.5065 48.9995C32.6465 49.023 34.8392 48.1803 37.3349 47.1034L41.8833 45.1605L41.9533 29.5934L42 14.003L37.9881 12.2941C35.7721 11.3577 33.6261 10.4448 33.253 10.2809L32.53 10L24.4827 17.9123ZM32.6699 29.6403C32.6699 36.1012 32.5999 37.8334 32.39 37.7631C31.9002 37.5993 21.5203 29.7572 21.5437 29.5701C21.6137 29.2892 32.32 21.2597 32.5065 21.3535C32.5999 21.4002 32.6699 25.1458 32.6699 29.6403Z" fill="#3EADF2"/>
</svg>
