<svg width="70" height="70" viewBox="0 0 70 70" fill="none" xmlns="http://www.w3.org/2000/svg">
<path d="M68.6793 31.8827L38.125 1.31956C36.3641 -0.439854 33.5094 -0.439854 31.7485 1.31956L25.3954 7.66814L33.4453 15.7183C37.6734 14.2902 41.6765 18.3387 40.2249 22.5435L47.9842 30.303C53.3326 28.4592 57.5435 35.1469 53.5264 39.161C49.3873 43.3002 42.5562 38.7126 44.7765 33.3265L37.5344 26.0936V45.133C41.4874 47.0925 41.0124 51.6722 38.9531 53.727C36.8578 55.8208 33.4625 55.8208 31.3672 53.727C28.6219 50.9769 29.6376 46.3971 33.125 44.9768V25.7576C29.8751 24.4279 29.2813 20.9544 30.2126 18.7262L22.2767 10.7807L1.32069 31.7406C-0.44023 33.5015 -0.44023 36.3563 1.32069 38.1173L31.8844 68.6804C33.6453 70.4399 36.4984 70.4399 38.2593 68.6804L68.6793 38.2594C70.4402 36.4985 70.4402 33.6437 68.6793 31.8827Z" fill="#F05030"/>
</svg>
