<svg width="72" height="70" viewBox="0 0 72 70" fill="none" xmlns="http://www.w3.org/2000/svg">
<path d="M23.9727 56.3639C23.9727 56.6534 23.6403 56.8849 23.2213 56.8849C22.7444 56.9284 22.4121 56.6969 22.4121 56.3639C22.4121 56.0743 22.7444 55.8428 23.1635 55.8428C23.597 55.7993 23.9727 56.0311 23.9727 56.3639ZM19.4787 55.7126C19.3776 56.0019 19.6666 56.335 20.1001 56.4217C20.4758 56.5665 20.9093 56.4217 20.996 56.1324C21.0827 55.8428 20.8081 55.51 20.3746 55.3796C19.9989 55.2783 19.5798 55.423 19.4787 55.7126ZM25.8656 55.4665C25.4466 55.5678 25.1575 55.8428 25.201 56.1758C25.2442 56.4652 25.62 56.6534 26.0534 56.5521C26.4724 56.4508 26.7615 56.1758 26.7183 55.8863C26.6748 55.6113 26.2846 55.423 25.8656 55.4665ZM35.3739 0C15.3315 0 0 15.2417 0 35.318C0 51.3702 10.0861 65.1065 24.4928 69.941C26.3425 70.274 26.9928 69.1304 26.9928 68.1896C26.9928 67.2922 26.9493 62.3418 26.9493 59.3022C26.9493 59.3022 16.8343 61.4734 14.7102 54.9887C14.7102 54.9887 13.0629 50.7768 10.6931 49.6912C10.6931 49.6912 7.384 47.4187 10.9243 47.4622C10.9243 47.4622 14.5223 47.7515 16.502 51.1965C19.6665 56.7836 24.9697 55.177 27.036 54.2216C27.3683 51.9058 28.3077 50.2989 29.3482 49.3438C21.2705 48.4462 13.1207 47.2739 13.1207 33.3494C13.1207 29.3689 14.2189 27.3714 16.5309 24.824C16.1552 23.883 14.9269 20.0038 16.9066 14.9956C19.9267 14.0548 26.8771 18.9038 26.8771 18.9038C29.7672 18.0932 32.874 17.6734 35.9518 17.6734C39.0297 17.6734 42.1364 18.0932 45.0265 18.9038C45.0265 18.9038 51.9768 14.0403 54.9971 14.9956C56.9767 20.0183 55.7484 23.883 55.3726 24.824C57.6848 27.3858 59.1008 29.3833 59.1008 33.3494C59.1008 47.3174 50.5897 48.4319 42.5122 49.3438C43.8415 50.4872 44.9687 52.6584 44.9687 56.06C44.9687 60.9378 44.9252 66.9738 44.9252 68.1607C44.9252 69.1015 45.5901 70.2449 47.4251 69.9121C61.8752 65.1065 71.6724 51.3702 71.6724 35.318C71.6724 15.2417 55.4161 0 35.3739 0ZM14.0455 49.9227C13.8576 50.0674 13.901 50.4005 14.1466 50.6755C14.3778 50.907 14.7102 51.0083 14.898 50.8202C15.0859 50.6755 15.0425 50.3424 14.7969 50.0674C14.5657 49.8359 14.2333 49.7346 14.0455 49.9227ZM12.4849 48.7503C12.3837 48.9384 12.5282 49.1701 12.8172 49.3149C13.0484 49.4594 13.3374 49.4162 13.4386 49.2136C13.5397 49.0253 13.3952 48.7938 13.1062 48.649C12.8172 48.5621 12.586 48.6056 12.4849 48.7503ZM17.1667 53.9031C16.9355 54.0914 17.0222 54.5257 17.3545 54.8007C17.6869 55.1335 18.1059 55.177 18.2938 54.9455C18.4817 54.7572 18.395 54.3229 18.1059 54.0479C17.788 53.7151 17.3545 53.6716 17.1667 53.9031ZM15.5194 51.7754C15.2882 51.9202 15.2882 52.2965 15.5194 52.6295C15.7506 52.9623 16.1407 53.1071 16.3286 52.9623C16.5598 52.7743 16.5598 52.398 16.3286 52.065C16.1263 51.7322 15.7506 51.5874 15.5194 51.7754Z" fill="white"/>
</svg>
