<svg width="74" height="70" viewBox="0 0 74 70" fill="none" xmlns="http://www.w3.org/2000/svg">
<path d="M31.6854 0.483917C26.4067 1.89372 21.3577 6.15592 18.4726 11.5984C16.4398 15.4344 14.9317 21.9916 14.9317 27.0079C14.9317 32.4831 16.7349 39.6632 19.4561 45.1059C20.702 47.5648 20.7676 47.7615 20.4397 49.204C19.9152 51.4662 20.7348 53.4334 22.6036 54.5483C27.4887 57.4007 32.4066 51.5319 28.7673 47.2041C28.0134 46.3189 27.4887 46.0238 25.9149 45.7287L23.9478 45.368L22.3741 42.2205C18.5381 34.4832 17.7841 24.0899 20.5053 16.6147C22.3085 11.7295 25.6199 7.43458 28.8657 5.76249C32.2099 4.0904 37.8819 3.36909 40.5376 4.28712C45.2915 5.9264 49.5209 11.6312 51.2914 18.7458C51.8161 20.9097 51.9472 21.0736 52.9964 21.467C53.6193 21.6965 54.4388 21.8932 54.8652 21.8932C55.5864 21.926 55.6191 21.8604 55.3897 20.3523C54.9636 17.4671 53.5866 13.2705 52.0455 10.3197C49.4882 5.33625 45.2261 1.79536 40.1769 0.451132C37.9147 -0.171803 33.9803 -0.139017 31.6854 0.483917Z" fill="#764ABC"/>
<path d="M30.0789 21.9588C28.5052 22.4178 27.0625 24.5489 27.0625 26.4832C27.0625 31.2701 32.6033 33.1716 35.7181 29.434C36.5706 28.4177 36.6033 28.4177 39.6524 28.4504C48.3406 28.4833 57.3569 32.2537 63.4224 38.3192C72.1106 46.9747 72.6024 57.499 64.6354 63.4989C62.0454 65.466 59.4224 66.2529 55.4224 66.2856C52.9964 66.3183 51.4881 66.1216 49.5866 65.5971C48.2096 65.2037 46.7669 64.8759 46.4391 64.8759C46.1113 64.8759 45.1932 65.4331 44.4392 66.1216L43.0293 67.3675L44.1769 67.925C45.7506 68.6789 48.603 69.3674 51.8161 69.8265C59.0617 70.8428 67.4551 67.3019 71.291 61.6301C73.3236 58.6137 73.7827 57.0399 73.7827 52.9089C73.7827 50.0892 73.6187 48.7778 73.0285 46.8434C71.3237 41.3353 67.7501 36.5814 62.1437 32.2864C55.9142 27.4997 47.226 24.5817 39.1279 24.5489C36.7343 24.5489 36.5376 24.4833 35.7181 23.5981C34.1443 21.7949 32.3739 21.3031 30.0789 21.9588Z" fill="#764ABC"/>
<path d="M7.12859 36.188C2.8336 40.6141 0.86644 44.4174 0.177933 49.499C-0.576148 55.1055 1.09594 60.5481 4.63683 64.1217C11.2596 70.7444 22.6364 71.3346 34.6034 65.6298C40.767 62.712 46.0784 57.5974 49.9144 50.9417C50.8979 49.2369 51.357 48.7778 52.7668 48.122C54.7339 47.1714 55.6848 45.7614 55.6848 43.7616C55.5864 38.9747 49.4882 37.0732 46.7015 41.0075C45.7179 42.3518 45.7179 44.6141 46.6685 46.1878L47.39 47.3681L46.6685 48.8105C46.2751 49.6303 45.849 50.3516 45.7506 50.4499C45.6523 50.5483 45.0294 51.3351 44.3736 52.2531C40.9638 56.9416 33.5542 62.3186 27.5216 64.3841C22.0135 66.2856 15.3579 66.2199 11.1285 64.2528C8.4728 63.0071 5.98107 60.4825 4.63683 57.6628C3.68605 55.6629 3.62047 55.3022 3.62047 51.7613C3.62047 48.1877 3.68605 47.8599 4.70241 45.7287C6.01385 42.942 7.71874 40.5814 9.81704 38.6142L11.4236 37.1059L10.9973 35.4995C10.7678 34.6142 10.44 33.7617 10.2761 33.565C10.1121 33.3683 8.89904 34.4175 7.12859 36.188Z" fill="#764ABC"/>
</svg>
