<svg width="70" height="70" viewBox="0 0 70 70" fill="none" xmlns="http://www.w3.org/2000/svg">
<path d="M35 0C15.6653 0 0 15.6653 0 35C0 54.3347 15.6653 70 35 70C54.3347 70 70 54.3347 70 35C70 15.6653 54.3347 0 35 0ZM42.4375 13.125C43.6794 10.9798 46.4315 10.2319 48.5766 11.4738C50.7359 12.7157 51.4698 15.4677 50.2278 17.627C48.9859 19.7722 46.2339 20.5202 44.0887 19.2782C41.9294 18.0222 41.1956 15.2702 42.4375 13.125ZM12.3347 39.502C9.85081 39.502 7.83266 37.4839 7.83266 35C7.83266 32.5161 9.85081 30.498 12.3347 30.498C14.8185 30.498 16.8367 32.5161 16.8367 35C16.8367 37.4839 14.8185 39.502 12.3347 39.502ZM16.3004 39.9395C19.4476 37.4133 19.4617 32.6149 16.3004 30.0746C17.5141 25.4456 20.4073 21.5081 24.2742 18.9113L27.619 24.5C20.3508 29.623 20.3508 40.377 27.619 45.5L24.2742 51.0887C20.4073 48.506 17.5282 44.5544 16.3004 39.9395ZM48.5766 58.5262C46.4173 59.7681 43.6794 59.0343 42.4375 56.875C41.1956 54.7157 41.9294 51.9637 44.0887 50.7218C46.2339 49.4798 48.9859 50.2137 50.2278 52.373C51.4698 54.5323 50.7359 57.2843 48.5766 58.5262ZM48.619 48.7177C44.8508 47.2641 40.7016 49.6492 40.0806 53.6573C39.3468 53.8548 33.1794 55.6754 26.4335 52.3306L29.6089 46.6431C37.6532 50.3831 47.0242 44.9919 47.8004 36.1431L54.3064 36.2419C53.9819 41.1109 51.8649 45.4859 48.619 48.7177ZM47.7863 33.8569C47.0242 25.1069 37.7238 19.5746 29.5948 23.3569L26.4194 17.6694C33.1794 14.3246 39.3327 16.1452 40.0665 16.3427C40.6875 20.3367 44.8367 22.7359 48.6048 21.2823C51.8649 24.5141 53.9677 28.8891 54.2782 33.7722L47.7863 33.8569Z" fill="#DD4814"/>
</svg>
